<svg id="svg" xmlns="http://www.w3.org/2000/svg" xmlns:xlink="http://www.w3.org/1999/xlink" width="400" height="400" viewBox="0, 0, 400,400"><g id="svgg"><path id="path0" d="M101.111 20.813 C 21.766 26.816,-22.623 112.185,12.553 191.131 C 32.638 236.209,79.455 288.718,146.716 341.608 C 164.930 355.930,197.943 379.259,199.996 379.259 C 201.081 379.259,220.308 366.243,232.353 357.354 L 241.479 350.619 231.809 337.717 C 226.491 330.621,221.864 324.538,221.528 324.199 C 221.191 323.860,217.126 326.390,212.495 329.822 C 199.098 339.748,200.641 339.154,196.096 336.133 C 134.976 295.504,67.498 226.533,45.940 182.654 C 11.063 111.669,59.538 39.254,129.977 57.115 C 155.765 63.654,173.198 80.191,191.779 115.741 C 195.985 123.787,199.680 130.370,199.991 130.370 C 200.302 130.370,204.138 123.548,208.515 115.209 C 217.747 97.623,221.870 91.165,229.278 82.692 L 234.638 76.561 229.720 71.428 C 227.015 68.606,221.842 63.148,218.225 59.299 L 211.648 52.302 205.866 58.306 L 200.085 64.309 190.968 55.270 C 170.880 35.353,144.717 22.722,120.135 21.072 C 117.005 20.862,113.111 20.592,111.481 20.471 C 109.852 20.351,105.185 20.504,101.111 20.813 M272.593 21.785 C 262.471 23.577,243.711 29.547,243.700 30.980 C 243.697 31.348,256.780 60.362,257.349 61.250 C 257.398 61.327,260.148 60.430,263.460 59.258 C 281.070 53.027,299.563 52.870,315.937 58.813 C 318.753 59.835,321.131 60.597,321.222 60.506 C 322.275 59.453,334.733 30.004,334.297 29.598 C 333.252 28.624,322.827 25.137,315.185 23.205 C 306.032 20.890,282.150 20.094,272.593 21.785 M354.953 63.904 C 343.882 75.019,342.977 76.125,344.157 77.092 C 354.928 85.919,365.901 114.240,365.922 133.266 L 365.926 137.273 382.716 136.785 C 391.951 136.516,399.684 136.119,399.901 135.902 C 400.705 135.097,398.483 115.947,396.613 107.563 C 392.189 87.730,383.191 69.824,370.553 55.701 L 367.037 51.772 354.953 63.904 M359.311 170.926 C 354.250 184.448,341.203 206.488,329.657 221.016 C 327.198 224.112,325.205 226.899,325.230 227.211 C 325.282 227.870,349.161 247.274,350.598 247.825 C 352.967 248.735,374.427 217.346,383.161 200.197 C 388.415 189.879,394.542 175.036,393.838 174.332 C 393.388 173.882,363.512 164.447,362.535 164.445 C 362.095 164.445,360.645 167.361,359.311 170.926 M293.699 261.063 C 282.417 272.396,270.186 283.630,256.702 295.042 C 251.386 299.542,247.037 303.472,247.037 303.776 C 247.037 304.404,267.505 329.630,268.015 329.630 C 269.678 329.630,304.313 298.470,318.029 284.634 L 328.280 274.293 320.622 266.924 C 308.931 255.676,303.970 251.098,303.637 251.248 C 303.470 251.323,298.998 255.740,293.699 261.063 " stroke="none" fill="#000000" fill-rule="evenodd"></path></g></svg>